<?xml version="1.0" encoding="utf-8"?>
<!-- Generator: Adobe Illustrator 19.0.0, SVG Export Plug-In . SVG Version: 6.00 Build 0)  -->
<svg version="1.1" id="Layer_1" xmlns="http://www.w3.org/2000/svg" xmlns:xlink="http://www.w3.org/1999/xlink" x="0px" y="0px"
	 viewBox="-442 244 74 74" style="enable-background:new -442 244 74 74;" xml:space="preserve">
<style type="text/css">
	.st0{fill:none;stroke:#FFFFFF;stroke-width:0.3333;stroke-dasharray:1.3333,1.3333;}
	.st1{fill:#FFFFFF;}
</style>
<g id="Call-out_1_">
	<g id="Ellipse-7">
		<path id="Ellipse-7-stroke_2_" class="st0" d="M-369.8,288c-3.3,16.7-18.1,29.3-35.7,29.3c-20.1,0-36.4-16.3-36.4-36.4
			c0-20.1,16.3-36.4,36.4-36.4c18.4,0,33.6,13.6,36.1,31.3"/>
	</g>
	<path id="Call-out" class="st1" d="M-368.1,281.4l-0.1,0.1c0,0,0,0,0,0l-1.8,1.8c-0.1,0.1-0.3,0.1-0.4,0l-0.1-0.1
		c-0.1-0.1-0.1-0.3,0-0.4l1.2-1.2l-4.4,0c-0.2,0-0.4-0.2-0.4-0.4s0.2-0.4,0.4-0.4l4.4,0l-1.2-1.2c-0.1-0.1-0.1-0.3,0-0.4l0.1-0.1
		c0.1-0.1,0.3-0.1,0.4,0l1.8,1.8c0,0,0,0,0,0l0.1,0.1c0.1,0,0.1,0.1,0.1,0.2C-368,281.2-368,281.3-368.1,281.4z"/>
</g>
</svg>
