<?xml version="1.0" encoding="utf-8"?>
<!-- Generator: Adobe Illustrator 17.0.0, SVG Export Plug-In . SVG Version: 6.00 Build 0)  -->
<!DOCTYPE svg PUBLIC "-//W3C//DTD SVG 1.1//EN" "http://www.w3.org/Graphics/SVG/1.1/DTD/svg11.dtd">
<svg version="1.1" id="Layer_1" xmlns="http://www.w3.org/2000/svg" xmlns:xlink="http://www.w3.org/1999/xlink" x="0px" y="0px"
	 width="166.301px" height="87.138px" viewBox="0 0 166.301 87.138" enable-background="new 0 0 166.301 87.138"
	 xml:space="preserve">
<g>
	<path fill="#BE2026" d="M156.859,22.446c-0.814-2.127-2.805-3.654-4.534-5.13c-0.65-0.552-1.274-1.189-2.008-1.605
		c0-0.434,0.416-0.932,0.608-1.297c0.672-1.378,1.484-3.166,0.728-4.812c-0.868-1.878-3.286-2.165-4.934-1.013
		c-0.74,0.52-1.266,1.305-1.559,2.125c-0.819,2.295,0.275,3.969,1.492,5.646c0.267,0.368,0.712,0.628,0.653,1.15
		c-0.041,0.384-0.281,0.718-0.444,1.047c-0.427,0.779-0.864,1.559-1.296,2.332c-1.068,2.008-2.306,3.931-3.488,5.901
		c-1.177,1.92-2.515,4.209-4.472,5.539c-0.864,0.578-2.371,0.754-3.306,0.153c-1.933-1.262-1.855-4.478-1.33-6.585
		c0.303-0.777,0.609-1.568,0.918-2.346c0.62-1.524,1.257-3.052,1.883-4.583c1.492-3.641,2.814-7.397,4.153-11.129
		c0.379-1.061,2.349-6.253,1.818-7.047c-0.399-0.602-1.398-0.618-2.125-0.618c-0.394,0.191-0.788,0.322-1.13,0.601
		c-1.106,0.881-1.781,2.131-2.376,3.301c-0.737,1.425-1.356,2.881-1.979,4.364c-1.215,2.851-2.462,5.685-3.397,8.651
		c-0.837,2.622-1.388,5.324-2.047,8.045c-0.341,1.362-0.52,2.856-0.627,4.301c-0.108,1.212-0.171,2.43-0.657,3.436
		c-0.686,1.393-2.225,4.719-4.272,4.435c-0.523-0.08-0.961-0.406-1.282-0.815c-1.292-1.615-0.806-4.48,0.027-6.171
		c0.487-1.023,1.23-1.904,2.224-2.483c0.395-0.225,0.883-0.392,1.361-0.445c0.985-0.118,1.486,0.163,1.721-0.982
		c0-0.733-1.612-1.01-2.161-0.773c-5.084,0-8.361,6.012-9.048,10.274c-0.106,0.605-0.215,1.246-0.263,1.899
		c-0.041,0.796,0.092,1.681-0.253,2.335c-0.473,0.902-1.333,1.277-2.093,1.801c-4.107,0-3.549-5.158-3.267-8.194
		c0.047-0.49,0.127-1.01,0.313-1.44c0.171-0.406,0.582-0.755,0.857-1.093c0.405-0.55,0.799-1.101,1.199-1.648
		c0.547-0.861,1.098-1.72,1.635-2.585c2.074-3.329,3.758-6.95,5.017-10.69c0.527-1.603,2.01-7.067-0.054-8.103
		c-0.253-0.126-0.712-0.288-1.034-0.164c-4.943,0-9.556,12.124-10.741,15.873c-0.688,2.164-1.181,4.409-1.664,6.662
		c-0.225,1.233-0.462,2.471-0.693,3.704c-0.123,0.688-0.119,1.523-0.428,2.127c-0.42,0.847-1.855,1.886-2.698,2.185
		c0,0.029,0,0.062,0,0.099c-0.171,0-0.171-0.229-0.201-0.348c-0.192-0.682-0.268-1.283-0.625-1.879
		c-1.111-1.924-3.23-2.019-4.442-0.11c-0.382,0-0.687-0.385-0.979-0.564c-0.785-0.472-1.837-0.472-2.664-0.053
		c-2.32,1.159-4.725,5.128-5.401,7.44c-0.145,0.604-0.283,1.202-0.426,1.805c-0.072,0.384-0.108,0.823-0.293,1.163
		c-0.292,0.543-1.847,1.311-2.405,1.512c0,0.135-0.05,0.093-0.179,0.093c0.109-1.352,0.22-2.71,0.328-4.061
		c0.098-1.239,0.035-2.649,0.409-3.779c0.384-0.698,0.774-1.399,1.159-2.099c0.605-1.203,1.209-2.409,1.813-3.617
		c0.781-1.61,1.546-3.299,2.034-5.016c0.316-1.273,0.639-2.535,0.959-3.803c0.571-2.19,1.452-7.549-1.447-8.238
		c-3.415-0.808-5.158,3.885-6.03,6.182c-0.547,1.447-0.902,3.02-1.231,4.569c-0.501,2.326-0.895,4.721-1.164,7.171
		c-0.135,1.439-0.268,2.872-0.399,4.312c-0.253,2.244-0.509,4.487-0.776,6.73c-0.19,1.328-0.38,2.656-0.574,3.978
		c-0.475,0-0.926-0.065-1.288-0.262c-0.038,0-0.062,0-0.097,0c0.083-0.287,0.156-0.581,0.235-0.869
		c0.177-0.937,0.371-1.936,0.359-2.927c-0.04-2.657-1.803-4.961-4.564-4.999c-0.659-0.008-1.318,0.017-1.869,0.218
		c-3.688,1.354-3.771,5.473-1.215,8.034c0.655,0.643,1.372,1.218,2.146,1.656c0.347,0.18,0.687,0.353,1.029,0.531
		c0.287,0-0.186,0.905-0.268,1.032c-0.945,1.539-2.885,3.928-4.487,4.918c-0.455,0.291-0.921,0.432-1.369,0.696
		c-0.576,0-1.089-0.265-1.233-0.803c-0.183-0.691,0.062-1.559,0.167-2.225c0.301-1.847,0.777-4.205-0.335-5.767
		c-0.279-0.393-0.68-0.57-1.106-0.706c-2.293-0.754-4.454,1.392-5.892,2.831c-0.55,0.554-1.305,1.142-1.616,1.832
		c-0.057,0-0.128,0-0.177,0c0-0.029,0-0.052,0-0.084c-0.145,0-0.12-0.564-0.145-0.704c-0.365-1.697-1.771-3.063-3.74-2.579
		c-3.187,0.796-4.755,5.392-5.989,7.923c-1.34,2.735-2.715,5.496-4.475,8.034c-0.991,1.413-1.948,2.82-3.375,3.959
		c-0.612,0.484-1.326,0.864-2.057,1.104c-0.337,0.102-0.677,0.203-1.022,0.304c-0.986,0-2.373,0.096-2.849-0.778
		c-0.299,0,0.689-0.913,0.791-1.022c2.462-2.702,5.063-5.384,6.068-8.832c0.464-1.593,0.362-3.362-1.51-3.603
		c-0.352-0.046-0.861-0.158-1.206-0.012c-1.17,0-2.374,0.776-3.21,1.447c-3.715,2.973-7.157,8.315-6.865,13.322
		c0.011,0.165,0,0.355-0.078,0.469c-0.448,0.535-3.348,1.518-1.711,2.47c0.899,0.528,2.146-0.593,2.508-0.376
		c0.282,0.346,0.572,0.678,0.853,1.016c0.647,0.643,1.504,1.089,2.383,1.306c6.216,1.47,10.693-5.841,13.122-10.151
		c0.66-1.186,1.317-2.366,1.971-3.549c0.761-1.489,3.662-8.043,5.529-8.043c0.925,0,1.361,1.109,1.215,1.918
		c-0.249,1.391-1.242,2.483-1.945,3.661c-1.072,1.749-3.075,6.038-2.371,8.252c0.191,0.604,0.571,1.152,1.208,1.343
		c3.727,1.082,5.904-7.21,6.448-9.64c0.111-0.653,0.228-1.318,0.348-1.981c0.065-0.58,0.086-1.233,0.257-1.779
		c0.344-1.115,2.284-3.7,3.496-4.004c0.903-0.225,1.087,0.57,1.087,1.296c0,3.108-3.362,6.673-1.294,9.858
		c0.441,0.688,1.034,1.221,1.837,1.396c3.39,0.731,8.231-6.734,9.786-9.03c0.494-0.733,1.31-2.529,2.204-2.742
		c0,0.037,0,0.067,0,0.093c0.023,0,0.053,0,0.086,0c-0.523,1.403-1.054,2.809-1.585,4.212c-0.294,0.895-0.585,1.787-0.872,2.673
		c-0.838,2.322-1.634,4.652-2.422,6.998c-0.362,1.209-0.732,2.422-1.099,3.631c-0.206,0.729-0.47,1.462-0.589,2.254
		c-0.413,2.932,0.009,7.408,3.797,7.237c1.273-0.06,2.213-0.845,3.141-1.593c1.161-0.922,1.988-2.134,2.774-3.29
		c3.427-5.081,4.338-12.207,5.287-18.589c0.224-1.612,0.384-3.259,0.523-4.92c0.063-0.798-0.029-1.852,0.26-2.557
		c0.107-0.269,2.342-1.779,2.697-1.837c0,3.807,1.983,6.942,6.216,6.471c1.464-0.161,2.828-0.839,3.89-1.8
		c2.558-2.322,4.101-5.241,4.711-8.563c0.097-0.688,0.177-1.381,0.267-2.067c0.026-0.448-0.074-1.034,0.121-1.403
		c0.204-0.381,0.774-0.606,1.078-0.876c0.337-0.301,0.628-0.652,0.897-1.003c0.082,0,0.169,0,0.259,0c0,0.029,0,0.057,0,0.083
		c0.127,0,0.079,1.004,0.084,1.207c0.076,0.523,0.162,1.04,0.245,1.559c0.314,2.013,0.945,4.41,2.891,5.379
		c2.95,1.476,5.959-1.346,7.891-3.327c0.401-0.448,0.803-0.895,1.201-1.346c0.053-0.003,0.111-0.019,0.158-0.025
		c0.313,0.256,0.619,0.506,0.933,0.755c0.762,0.624,1.882,1.039,2.987,0.954c3.354-0.269,6.861-5.657,7.862-8.43
		c0.026,0,0.058,0,0.083,0c0,0.353,0.796,1.259,1.089,1.503c2.55,2.108,4.327,1.566,6.852-0.128
		c2.664-1.803,4.431-4.725,5.999-7.308c1.337-2.308,2.675-4.62,4.005-6.936c0.694-1.261,1.391-2.529,2.074-3.798
		c0-0.018,0-0.05,0-0.077c0.228,0,0.468,0.331,0.629,0.498c1.098,1.092,1.903,2.226,2.261,3.72c0.044,0.211,0.135,0.574-0.002,0.758
		c-0.048,0.043-0.098,0.077-0.156,0.115c-0.555,0.09-1.122,0.194-1.684,0.285c-1.126,0.265-2.165,0.783-3.071,1.486
		c-0.395,0.298-0.673,0.745-0.936,1.138c-1.819,2.685-0.317,6.433,3.138,6.488C154.906,33.144,159.113,28.344,156.859,22.446z
		 M110.608,28.571c0.293-1.44,0.583-2.878,0.869-4.316c0.644-3.351,1.479-6.769,2.961-9.737c0.535-1.067,1.113-2.036,2.13-2.777
		c1.211,0.606,0.243,3.749-0.026,4.746c-0.99,3.555-2.466,6.846-4.242,9.992c-0.457,0.816-0.943,1.816-1.686,2.44
		c0,0.028,0,0.058,0,0.084C110.466,29.003,110.584,28.69,110.608,28.571z M85.393,33.753c0.067-0.78,0.137-1.555,0.203-2.326
		c0.221-2.314,0.741-9.704,2.663-10.623c0-0.029,0-0.062,0-0.086c2.259,0.454-0.303,8.881-0.833,10.258
		c-0.413,1.072-0.827,2.16-1.337,3.206c-0.202,0.347-0.396,0.696-0.6,1.043c-0.029,0-0.054,0-0.082,0
		c0,0.132-0.089-0.088-0.089-0.111C85.233,34.684,85.361,34.16,85.393,33.753z M33.266,68.543c-0.087,0-0.176,0-0.257,0
		c-0.097-0.242-0.199-0.477-0.302-0.715c-0.135-0.364-0.231-0.708-0.279-1.11c-0.23-1.942,0.494-4.274,1.91-5.474
		c0.359-0.308,0.783-0.44,1.171-0.647c0.718,0.124,1.371,0.446,1.54,1.217C37.579,64.295,34.504,66.718,33.266,68.543z
		 M73.516,46.252c-0.161-0.426-0.268-1.02-0.118-1.513c0.153-0.521,0.538-0.701,0.956-0.977c0.502,0.033,0.873,0.065,1.26,0.324
		c1.432,0.955,1.262,3.834,0.725,5.288C75.328,49.375,73.803,47.062,73.516,46.252z M78.007,55.855
		c-0.645,3.497-1.451,6.914-2.393,10.278c-0.455,1.588-0.823,3.192-1.301,4.754c-0.358,1.145-1.177,5.384-2.951,4.9
		c-0.435-0.121-0.642-0.511-0.679-0.955c-0.065-0.688,0.202-1.393,0.372-1.991c0.307-1.054,0.615-2.109,0.911-3.17
		c0.792-2.739,1.585-5.474,2.378-8.215c0.493-1.523,0.99-3.048,1.493-4.572c0.623-1.903,1.252-3.794,1.886-5.699
		c0.375,0.096,0.749,0.171,1.126,0.264C78.568,52.916,78.29,54.389,78.007,55.855z M99.64,42.296
		c-0.32,2.169-0.946,4.406-2.573,5.889c-0.408,0.364-0.869,0.473-1.302,0.754c-0.775,0-1.449,0.021-2.043-0.309
		c-2.224-1.231-1.645-5.758-0.506-7.513c0.216-0.346,0.545-0.754,0.93-0.91c0.318-0.109,0.619-0.218,0.92-0.327
		c0.557-0.369,0.785-0.998,1.04-1.55c0.81,1.613,1.599,2.517,3.629,2.586c0,0.028,0,0.053,0,0.086
		C99.879,41.002,99.661,42.091,99.64,42.296z M99.735,38.849c0,0.121-0.064,0.077-0.171,0.068c-0.703-0.082-2.198-1.261-1.303-1.971
		c0-0.029,0-0.058,0-0.086c0.951,0.209,1.331,1.124,1.555,1.988C99.787,38.849,99.76,38.849,99.735,38.849z M148.758,14.335
		c0,0.026,0,0.055,0,0.079c-0.691,0-0.946-2.743-0.741-3.351c0.194-0.568,0.638-0.755,1.092-1.052
		C150.861,10.499,149.452,13.473,148.758,14.335z M151.615,25.464c-0.146,0-0.143,0.39-0.174,0.518
		c-0.21,0.954-0.745,2.113-1.596,2.708c-0.242,0.135-0.487,0.264-0.736,0.399c-1.96,0-1.815-1.627-0.664-2.641
		c0.603-0.53,1.253-0.749,1.962-1.073c0.4,0,0.804,0,1.208,0C151.615,25.405,151.615,25.436,151.615,25.464z M22.516,66.017
		c0.301-0.704,0.588-1.402,0.872-2.105c0.268-0.424,0.827-0.61,1.22-0.862c0.452-0.279,2.653-1.874,1.83-2.617
		c-0.316-0.276-1.588,0.708-1.973,0.853c0,0.128-0.054,0.087-0.178,0.087c0.191-0.586,0.376-1.163,0.563-1.745
		c0.465-1.745,0.93-3.497,1.402-5.248c0.787-3.389,1.435-6.881,2.072-10.356c0.171-1.153,0.344-2.306,0.518-3.458
		c0.109-0.725,0.184-1.503,0.509-2.128c0.172-0.189,0.349-0.377,0.525-0.572c0.485-0.46,0.977-0.921,1.469-1.381
		c1.106-1.036,2.049-2.176,3.132-3.251c0-0.031,0-0.059,0-0.092c0.283,0,0.937,0.713,1.145,0.927
		c2.424,2.51,3.164,4.792,3.164,8.574c0,5.509-2.069,9.837-6.55,12.703c-0.584,0.365-1.25,0.688-1.906,0.92
		c-0.348,0.115-0.697,0.239-1.036,0.363c-0.167,0.024-0.342,0.055-0.51,0.082c-0.606,0-1.654-0.168-1.669,0.604
		c-0.004,0.184,0.052,0.396,0.184,0.531c0.313,0.314,0.998,0.235,1.485,0.235c3.692,0,8.029-2.886,10.624-5.246
		c3.214-2.917,5.116-6.694,5.533-11.058c0.141-1.5,0.061-3.159-0.409-4.471c-0.643-1.793-1.535-3.031-2.913-4.397
		c-0.862-0.862-1.758-1.382-2.715-1.961c-0.583-0.355-1.171-0.728-1.837-0.907c0-0.059,0-0.122,0-0.167
		c0.118,0,0.103-0.039,0.138-0.111c0.927-1.6,5.683-8.191,3.601-9.844c-0.624-0.492-1.487-0.412-2.359-0.412
		c-0.637,0.213-1.289,0.304-1.873,0.567c-2.31,1.031-4.289,3.344-5.687,5.412c-0.545,0.845-1.096,1.676-1.642,2.509
		c-0.221,0.379-0.425,0.901-0.787,1.194c-0.194,0.162-0.497,0.141-0.714,0.247c-1.446,0-3.293,0.736-4.591,1.166
		c-6.497,2.173-12.065,6.406-15.829,12.359c-1.134,1.802-2.193,3.698-2.871,5.733c-0.658,1.966-1.362,4.027-1.396,6.286
		c0.009,0.525,0.014,1.041,0.014,1.563c0.052,0.555,0.408,1.4,0.238,1.945c-0.169,0.538-1.887,1.418-2.32,2.108
		c-0.168,0,0.038,0.145,0.111,0.217c1.354,1.266,2.549-1.188,3.194-0.435c0.779,0.908,1.365,1.922,2.32,2.771
		c2.364,2.081,5.467,2.997,8.954,2.783c0.993-0.062,1.908-0.297,2.851-0.416c0,0.027,0,0.052,0,0.087
		c-0.144,0-0.157,0.528-0.179,0.684c-0.267,1.661-0.786,3.09-1.357,4.585c-0.153,0.294-0.297,0.595-0.438,0.886
		c-0.369,0.494-2.015,0.058-2.601,0.323c-1.525,0-2.998,0.556-4.324,1.02c-4.188,1.441-7.887,4.328-8.914,8.892
		c-0.315,1.386-0.05,2.95,0.881,3.907c0.859,0.889,2.257,1.086,3.563,0.871c3.454-0.593,5.922-2.903,8.347-5.395
		c0.417-0.438,2.74-3.446,2.954-3.45c0.592-0.014,1.789,1.859,2.242,2.273c0,0.109-0.029,0.082,0.087,0.082
		c0-0.119,0.018-0.109,0.098-0.168c1.081-0.896,2.054-1.956,3.03-2.92c0.569-0.552,1.139-1.108,1.703-1.663
		c0.119,0,0.094,0.023,0.094-0.084c-0.123,0-0.106-0.035-0.152-0.108c-0.72-1.092-2.718-2.327-3.908-2.657
		c0-0.094,0.858-1.659,0.981-1.879C21.282,69.265,21.889,67.613,22.516,66.017z M32.956,27.725c0.787-1.5,1.908-3.668,3.45-4.626
		c0.279-0.175,0.618-0.25,0.924-0.396c0.135,0.058,0.284,0.118,0.426,0.171c0.023,0.29,0.036,0.574,0.054,0.855
		c-0.223,2.264-1.84,3.782-2.734,5.708c-0.936,0-1.781-0.406-2.757-0.435C32.319,28.706,32.81,28.004,32.956,27.725z M30.501,34.1
		c0.021-0.837,0.483-1.648,0.699-2.413c0.451,0.039,0.911,0.127,1.293,0.339c0.024,0,0.048,0,0.085,0c0,0.029,0,0.055,0,0.089
		c-0.067,0-1.783,1.852-1.896,2.068c-0.031,0-0.06,0-0.085,0c0,0.034,0,0.058,0,0.087C30.464,34.269,30.491,34.216,30.501,34.1z
		 M13.761,76.052c0,0.294-0.494,0.74-0.653,0.974c-1.05,1.508-2.346,3.09-3.958,4.07c-0.457,0.277-0.977,0.383-1.433,0.646
		c-0.703,0-1.307-0.187-1.651-0.766c-0.272-0.471-0.26-1.139-0.104-1.656c0.581-1.83,2.273-2.81,4.015-3.31
		c0.423-0.105,0.851-0.203,1.284-0.31c0.819,0,1.838-0.087,2.5,0.259c0.025,0,0.051,0,0.081,0
		C13.842,76.077,13.866,76.052,13.761,76.052z M10.135,53.174c0,0.032,0,0.055,0,0.084c-0.012-0.03-0.023-0.065-0.038-0.098
		c-0.323-1.117,0.022-2.529,0.235-3.608c0.478-2.393,1.341-4.754,2.52-6.795c0.891-1.537,1.891-2.95,3.1-4.315
		c0.589-0.677,1.301-1.259,2.005-1.796c1.815-1.392,3.548-2.612,5.547-3.605c0.688-0.346,1.43-0.667,2.171-0.895
		c0.411-0.132,0.81-0.254,1.2-0.381c0.07,0.058,0.123,0.119,0.181,0.176c-0.164,0-0.183,0.231-0.24,0.35
		c-1.271,2.836-2.248,5.771-3.305,8.712c0.163,0-0.047,0.162-0.121,0.233c-1.038,0.976-2.086,1.933-3.129,2.908
		c-2.178,1.989-4.353,3.985-6.534,5.978c-0.917,0.78-1.828,1.564-2.754,2.344c-0.245,0.232-0.498,0.471-0.75,0.708
		C10.192,53.174,10.159,53.174,10.135,53.174z M18.906,62.492c-0.035,0.095-0.066,0.194-0.111,0.297
		c-0.521,0.513-3.112-0.215-3.639-0.43c-2.262-0.93-3.612-3.201-4.368-5.379c-0.13-0.368-0.417-1.01-0.274-1.428
		c0.15-0.445,1.845-1.754,2.272-2.147c1.977-1.821,3.942-3.649,5.923-5.472c0.772-0.716,1.552-1.438,2.329-2.153
		c0.357-0.333,0.787-0.674,1.093-1.065c0.185,0.376-0.772,3.364-0.862,4.059c-0.367,1.817-0.728,3.632-1.1,5.443
		C19.746,56.979,19.329,59.735,18.906,62.492z"/>
	<g>
		<path fill="#BE2026" d="M162.847,24.137c-1.846,0-3.301,1.454-3.301,3.267c0,1.862,1.405,3.25,3.301,3.25
			c1.828,0,3.283-1.447,3.283-3.25C166.131,25.532,164.725,24.137,162.847,24.137z M162.847,30.263
			c-1.539,0-2.769-1.297-2.769-2.868c0-1.629,1.172-2.867,2.769-2.867c1.546,0,2.751,1.321,2.751,2.867
			C165.598,28.999,164.435,30.263,162.847,30.263z"/>
		<path fill="#BE2026" d="M164.808,29.041c-0.083,0-0.224-0.117-0.382-0.291c-0.267-0.291-0.606-0.732-1.055-1.247
			c0.523-0.466,0.631-0.765,0.631-1.089c0-0.34-0.166-0.532-0.323-0.648c-0.151-0.108-0.375-0.208-1.039-0.208
			c-0.284,0-0.408,0.017-0.591,0.017c-0.224,0-0.516-0.017-0.574-0.017h-0.141c-0.058,0-0.101,0.017-0.101,0.058
			c0,0.051,0.025,0.075,0.076,0.075c0.257,0.009,0.374,0.058,0.39,0.258c0.016,0.208,0.01,0.449,0.01,0.998v0.84
			c0,0.582,0,0.823-0.018,0.998c-0.016,0.233-0.067,0.249-0.357,0.258c-0.058,0-0.092,0.024-0.092,0.066
			c0,0.042,0.034,0.067,0.077,0.067h0.149c0.065,0,0.324-0.016,0.548-0.016c0.233,0,0.523,0.016,0.581,0.016h0.159
			c0.058,0,0.083-0.025,0.092-0.075c-0.009-0.05-0.034-0.067-0.084-0.067c-0.208,0-0.282-0.016-0.314-0.058
			c-0.043-0.05-0.075-0.099-0.075-0.906v-0.382h0.498c0.092,0.133,0.283,0.44,0.474,0.698c0.265,0.358,0.449,0.591,0.649,0.698
			c0.157,0.083,0.391,0.092,0.599,0.092h0.198c0.083,0,0.101-0.025,0.101-0.058C164.892,29.074,164.874,29.041,164.808,29.041z
			 M163.062,27.37c-0.108,0.066-0.242,0.074-0.357,0.074c-0.101,0-0.249-0.033-0.332-0.091V25.84
			c0.05-0.025,0.125-0.033,0.216-0.033c0.464,0,0.756,0.34,0.756,0.855C163.345,27.021,163.254,27.262,163.062,27.37z"/>
	</g>
</g>
<g>
</g>
<g>
</g>
<g>
</g>
<g>
</g>
<g>
</g>
<g>
</g>
</svg>
